<?xml version="1.0" encoding="UTF-8" standalone="no"?>
<!DOCTYPE svg PUBLIC "-//W3C//DTD SVG 1.1//EN" "http://www.w3.org/Graphics/SVG/1.1/DTD/svg11.dtd">
<svg width="100%" height="100%" viewBox="0 0 48 48" version="1.1" xmlns="http://www.w3.org/2000/svg" xmlns:xlink="http://www.w3.org/1999/xlink" xml:space="preserve" xmlns:serif="http://www.serif.com/" style="fill-rule:evenodd;clip-rule:evenodd;stroke-linejoin:round;stroke-miterlimit:2;">
    <g transform="matrix(1.225539,0.002864,-0.00257,1.099996,-10.766068,-1.720302)">
        <g transform="matrix(0.815963,-0.002124,0.001907,0.909089,8.787994,1.541039)">
            <path d="M24,0L46.825,16.584L38.107,43.416L9.893,43.416L1.175,16.584L24,0Z"/>
        </g>
        <g transform="matrix(0.815963,-0.002124,0.001907,0.909089,8.787994,1.541039)">
            <path d="M24,0L46.825,16.584L38.107,43.416L9.893,43.416L1.175,16.584L24,0Z"/>
        </g>
        <g transform="matrix(0.65742,0.538481,-0.48332,0.732451,24.238469,-7.194192)">
            <path d="M24,0L46.825,16.584L38.107,43.416L9.893,43.416L1.175,16.584L24,0Z"/>
        </g>
    </g>
</svg>
