<?xml version="1.0" encoding="UTF-8" standalone="no"?>
<!DOCTYPE svg PUBLIC "-//W3C//DTD SVG 1.1//EN" "http://www.w3.org/Graphics/SVG/1.1/DTD/svg11.dtd">
<svg width="100%" height="100%" viewBox="0 0 48 48" version="1.1" xmlns="http://www.w3.org/2000/svg" xmlns:xlink="http://www.w3.org/1999/xlink" xml:space="preserve" xmlns:serif="http://www.serif.com/" style="fill-rule:evenodd;clip-rule:evenodd;stroke-linejoin:round;stroke-miterlimit:2;">
    <g transform="matrix(0.019378,0,0,-0.019378,-71.445737,119.720538)">
        <path d="M4854,6161C4778,6126 4737,6044 4759,5970C4794,5851 4931,5802 5025,5874C5076,5913 5093,5952 5088,6020C5083,6089 5053,6135 4996,6161C4944,6184 4906,6184 4854,6161ZM5008,6138C5045,6115 5079,6053 5080,6007C5080,5963 5055,5915 5016,5885C4886,5786 4714,5932 4788,6080C4826,6157 4932,6185 5008,6138Z" style="fill-rule:nonzero;"/>
    </g>
    <g transform="matrix(0.019378,0,0,-0.019378,-71.445737,119.720538)">
        <path d="M4862,6133C4794,6100 4764,6013 4798,5950C4870,5817 5060,5860 5060,6008C5060,6064 5035,6107 4988,6131C4943,6154 4906,6155 4862,6133Z" style="fill-rule:nonzero;"/>
    </g>
    <g transform="matrix(0.019378,0,0,-0.019378,-71.445737,119.720538)">
        <path d="M5020,6175C5020,6166 5102,6090 5113,6090C5143,6090 5289,6048 5364,6018C5407,6001 5482,5963 5531,5933C5608,5887 5626,5880 5671,5880C5723,5880 5723,5880 5705,5900C5682,5926 5553,6009 5475,6047C5405,6082 5288,6126 5221,6141C5170,6153 5020,6178 5020,6175Z" style="fill-rule:nonzero;"/>
    </g>
    <g transform="matrix(0.019378,0,0,-0.019378,-71.445737,119.720538)">
        <path d="M4750,6153C4750,6143 4755,6128 4760,6120C4768,6108 4770,6111 4770,6132C4770,6147 4766,6162 4760,6165C4755,6168 4750,6163 4750,6153Z" style="fill-rule:nonzero;"/>
    </g>
    <g transform="matrix(0.019378,0,0,-0.019378,-71.445737,119.720538)">
        <path d="M4780,6155C4780,6147 4785,6140 4790,6140C4796,6140 4800,6147 4800,6155C4800,6163 4796,6170 4790,6170C4785,6170 4780,6163 4780,6155Z" style="fill-rule:nonzero;"/>
    </g>
    <g transform="matrix(0.019378,0,0,-0.019378,-71.445737,119.720538)">
        <path d="M4693,6139C4697,6126 4700,6109 4700,6103C4700,6096 4704,6090 4708,6090C4720,6090 4710,6149 4697,6157C4691,6161 4689,6155 4693,6139Z" style="fill-rule:nonzero;"/>
    </g>
    <g transform="matrix(0.019378,0,0,-0.019378,-71.445737,119.720538)">
        <path d="M4721,6148C4722,6141 4726,6124 4730,6110C4737,6088 4738,6089 4739,6123C4740,6143 4736,6160 4730,6160C4725,6160 4720,6154 4721,6148Z" style="fill-rule:nonzero;"/>
    </g>
    <g transform="matrix(0.019378,0,0,-0.019378,-71.445737,119.720538)">
        <path d="M4634,6137C4637,6127 4640,6110 4640,6099C4640,6089 4645,6080 4650,6080C4662,6080 4652,6130 4637,6145C4630,6152 4629,6149 4634,6137Z" style="fill-rule:nonzero;"/>
    </g>
    <g transform="matrix(0.019378,0,0,-0.019378,-71.445737,119.720538)">
        <path d="M4667,6118C4673,6083 4678,6074 4684,6081C4691,6089 4678,6150 4669,6150C4664,6150 4663,6135 4667,6118Z" style="fill-rule:nonzero;"/>
    </g>
    <g transform="matrix(0.019378,0,0,-0.019378,-71.445737,119.720538)">
        <path d="M4606,6118C4616,6082 4632,6060 4626,6090C4623,6104 4620,6121 4620,6128C4620,6134 4615,6140 4609,6140C4603,6140 4601,6131 4606,6118Z" style="fill-rule:nonzero;"/>
    </g>
    <g transform="matrix(0.019378,0,0,-0.019378,-71.445737,119.720538)">
        <path d="M4576,6108C4579,6095 4586,6078 4591,6070C4598,6057 4599,6057 4600,6070C4600,6097 4588,6130 4578,6130C4573,6130 4572,6120 4576,6108Z" style="fill-rule:nonzero;"/>
    </g>
    <g transform="matrix(0.019378,0,0,-0.019378,-71.445737,119.720538)">
        <path d="M4553,6085C4559,6066 4567,6050 4571,6050C4575,6050 4573,6066 4567,6085C4561,6104 4553,6120 4549,6120C4545,6120 4547,6104 4553,6085Z" style="fill-rule:nonzero;"/>
    </g>
    <g transform="matrix(0.019378,0,0,-0.019378,-71.445737,119.720538)">
        <path d="M4521,6103C4520,6085 4540,6036 4546,6042C4549,6045 4544,6063 4536,6081C4528,6100 4521,6110 4521,6103Z" style="fill-rule:nonzero;"/>
    </g>
    <g transform="matrix(0.019378,0,0,-0.019378,-71.445737,119.720538)">
        <path d="M4490,6090C4491,6082 4498,6064 4506,6050L4521,6025L4515,6055C4508,6088 4490,6114 4490,6090Z" style="fill-rule:nonzero;"/>
    </g>
    <g transform="matrix(0.019378,0,0,-0.019378,-71.445737,119.720538)">
        <path d="M4465,6070C4477,6029 4492,6010 4485,6045C4481,6062 4474,6080 4468,6085C4461,6092 4460,6087 4465,6070Z" style="fill-rule:nonzero;"/>
    </g>
    <g transform="matrix(0.019378,0,0,-0.019378,-71.445737,119.720538)">
        <path d="M4430,6075C4430,6064 4462,6008 4466,6012C4472,6019 4447,6080 4438,6080C4434,6080 4430,6078 4430,6075Z" style="fill-rule:nonzero;"/>
    </g>
    <g transform="matrix(0.019378,0,0,-0.019378,-71.445737,119.720538)">
        <path d="M4410,6054C4410,6043 4417,6025 4426,6014C4440,5996 4441,5996 4434,6020C4431,6034 4424,6052 4419,6060C4412,6072 4411,6071 4410,6054Z" style="fill-rule:nonzero;"/>
    </g>
    <g transform="matrix(0.019378,0,0,-0.019378,-71.445737,119.720538)">
        <path d="M4606,6045C4492,6010 4335,5934 4252,5874C4250,5873 4269,5852 4294,5827C4319,5803 4340,5776 4340,5767C4340,5744 4344,5745 4420,5789C4504,5837 4603,5877 4692,5899C4753,5913 4759,5917 4752,5935C4748,5946 4745,5981 4745,6013C4745,6070 4745,6070 4715,6069C4699,6069 4650,6058 4606,6045Z" style="fill-rule:nonzero;"/>
    </g>
    <g transform="matrix(0.019378,0,0,-0.019378,-71.445737,119.720538)">
        <path d="M5105,6018C5105,5989 5101,5954 5097,5940C5090,5916 5092,5914 5158,5898C5256,5874 5324,5846 5415,5795C5489,5753 5496,5750 5505,5767C5511,5777 5534,5804 5556,5828L5598,5871L5556,5899C5453,5970 5253,6052 5152,6066L5105,6072L5105,6018Z" style="fill-rule:nonzero;"/>
    </g>
    <g transform="matrix(0.019378,0,0,-0.019378,-71.445737,119.720538)">
        <path d="M4380,6045C4380,6032 4404,5990 4412,5990C4417,5990 4414,6004 4405,6020C4391,6047 4380,6058 4380,6045Z" style="fill-rule:nonzero;"/>
    </g>
    <g transform="matrix(0.019378,0,0,-0.019378,-71.445737,119.720538)">
        <path d="M4350,6035C4350,6022 4374,5980 4382,5980C4387,5980 4384,5994 4375,6010C4361,6037 4350,6048 4350,6035Z" style="fill-rule:nonzero;"/>
    </g>
    <g transform="matrix(0.019378,0,0,-0.019378,-71.445737,119.720538)">
        <path d="M4322,6024C4342,5980 4355,5960 4362,5960C4373,5960 4344,6016 4329,6026C4323,6030 4319,6029 4322,6024Z" style="fill-rule:nonzero;"/>
    </g>
    <g transform="matrix(0.019378,0,0,-0.019378,-71.445737,119.720538)">
        <path d="M4300,6005C4300,5992 4324,5950 4332,5950C4337,5950 4334,5964 4325,5980C4311,6007 4300,6018 4300,6005Z" style="fill-rule:nonzero;"/>
    </g>
    <g transform="matrix(0.019378,0,0,-0.019378,-71.445737,119.720538)">
        <path d="M4270,5995C4270,5990 4279,5972 4290,5955C4301,5939 4310,5932 4310,5940C4310,5957 4271,6011 4270,5995Z" style="fill-rule:nonzero;"/>
    </g>
    <g transform="matrix(0.019378,0,0,-0.019378,-71.445737,119.720538)">
        <path d="M4250,5971C4250,5966 4259,5952 4270,5939L4291,5915L4275,5948C4260,5979 4250,5989 4250,5971Z" style="fill-rule:nonzero;"/>
    </g>
    <g transform="matrix(0.019378,0,0,-0.019378,-71.445737,119.720538)">
        <path d="M4237,5930C4246,5914 4258,5900 4263,5900C4267,5900 4263,5914 4253,5930C4244,5947 4232,5960 4227,5960C4223,5960 4227,5947 4237,5930Z" style="fill-rule:nonzero;"/>
    </g>
    <g transform="matrix(0.019378,0,0,-0.019378,-71.445737,119.720538)">
        <path d="M4200,5932C4200,5927 4210,5915 4221,5904C4243,5885 4243,5885 4231,5907C4219,5931 4200,5946 4200,5932Z" style="fill-rule:nonzero;"/>
    </g>
    <g transform="matrix(0.019378,0,0,-0.019378,-71.445737,119.720538)">
        <path d="M4170,5923C4170,5918 4179,5905 4190,5895C4201,5885 4210,5881 4210,5887C4210,5892 4201,5905 4190,5915C4179,5925 4170,5929 4170,5923Z" style="fill-rule:nonzero;"/>
    </g>
    <g transform="matrix(0.019378,0,0,-0.019378,-71.445737,119.720538)">
        <path d="M4150,5901C4150,5896 4155,5888 4160,5885C4166,5882 4170,5883 4170,5889C4170,5894 4166,5902 4160,5905C4155,5908 4150,5907 4150,5901Z" style="fill-rule:nonzero;"/>
    </g>
    <g transform="matrix(0.019378,0,0,-0.019378,-71.445737,119.720538)">
        <path d="M4683,5880C4584,5854 4472,5806 4408,5762C4358,5726 4355,5722 4352,5677L4349,5629L4400,5668C4499,5743 4668,5813 4786,5826C4816,5830 4840,5836 4840,5839C4840,5843 4827,5854 4810,5863C4794,5873 4780,5885 4780,5891C4780,5903 4767,5902 4683,5880Z" style="fill-rule:nonzero;"/>
    </g>
    <g transform="matrix(0.019378,0,0,-0.019378,-71.445737,119.720538)">
        <path d="M5068,5866C5064,5828 5072,5820 5115,5820C5132,5820 5139,5827 5144,5852C5147,5869 5149,5884 5148,5885C5146,5886 5129,5890 5109,5894C5073,5900 5072,5900 5068,5866Z" style="fill-rule:nonzero;"/>
    </g>
    <g transform="matrix(0.019378,0,0,-0.019378,-71.445737,119.720538)">
        <path d="M5167,5873C5165,5868 5160,5853 5156,5838C5151,5815 5154,5811 5182,5801C5199,5795 5214,5791 5215,5792C5223,5802 5240,5840 5240,5848C5240,5854 5226,5863 5209,5869C5171,5882 5172,5882 5167,5873Z" style="fill-rule:nonzero;"/>
    </g>
    <g transform="matrix(0.019378,0,0,-0.019378,-71.445737,119.720538)">
        <path d="M4117,5855C3972,5804 3958,5614 4094,5543C4161,5508 4264,5536 4305,5599C4350,5667 4345,5755 4292,5813C4252,5858 4175,5876 4117,5855ZM4240,5832C4292,5806 4320,5758 4320,5695C4320,5543 4137,5484 4044,5605C4008,5653 4004,5734 4036,5777C4088,5847 4168,5869 4240,5832Z" style="fill-rule:nonzero;"/>
    </g>
    <g transform="matrix(0.019378,0,0,-0.019378,-71.445737,119.720538)">
        <path d="M4126,5830C4013,5795 3996,5629 4100,5575C4173,5537 4256,5564 4290,5635C4315,5687 4315,5711 4290,5760C4261,5818 4188,5849 4126,5830Z" style="fill-rule:nonzero;"/>
    </g>
    <g transform="matrix(0.019378,0,0,-0.019378,-71.445737,119.720538)">
        <path d="M5028,5856C5005,5839 5005,5830 5030,5830C5043,5830 5050,5837 5050,5850C5050,5873 5050,5873 5028,5856Z" style="fill-rule:nonzero;"/>
    </g>
    <g transform="matrix(0.019378,0,0,-0.019378,-71.445737,119.720538)">
        <path d="M5641,5860C5498,5827 5465,5639 5587,5555C5659,5507 5768,5528 5817,5600C5904,5727 5792,5893 5641,5860ZM5760,5827C5875,5750 5845,5569 5714,5544C5658,5534 5612,5548 5571,5589C5495,5665 5511,5773 5605,5831C5647,5858 5718,5856 5760,5827Z" style="fill-rule:nonzero;"/>
    </g>
    <g transform="matrix(0.019378,0,0,-0.019378,-71.445737,119.720538)">
        <path d="M5636,5830C5551,5805 5513,5693 5564,5615C5600,5561 5692,5541 5751,5576C5840,5628 5840,5769 5751,5814C5713,5834 5671,5840 5636,5830Z" style="fill-rule:nonzero;"/>
    </g>
    <g transform="matrix(0.019378,0,0,-0.019378,-71.445737,119.720538)">
        <path d="M5250,5824C5236,5788 5237,5785 5265,5772C5299,5756 5297,5756 5315,5790C5330,5819 5330,5820 5301,5835C5262,5855 5261,5854 5250,5824Z" style="fill-rule:nonzero;"/>
    </g>
    <g transform="matrix(0.019378,0,0,-0.019378,-71.445737,119.720538)">
        <path d="M4775,5809C4686,5795 4560,5748 4481,5701C4391,5646 4307,5579 4318,5569C4322,5565 4358,5548 4399,5531C4464,5503 4475,5501 4489,5514C4540,5560 4673,5620 4779,5644C4813,5652 4843,5660 4844,5662C4848,5668 4873,5726 4891,5773L4910,5820L4867,5819C4844,5818 4803,5814 4775,5809Z" style="fill-rule:nonzero;"/>
    </g>
    <g transform="matrix(0.019378,0,0,-0.019378,-71.445737,119.720538)">
        <path d="M4941,5813C4941,5808 4956,5771 4973,5730C5000,5668 5010,5654 5030,5652C5124,5640 5272,5581 5346,5525L5377,5501L5453,5533C5495,5551 5530,5569 5530,5573C5531,5601 5353,5720 5252,5759C5133,5804 4938,5838 4941,5813Z" style="fill-rule:nonzero;"/>
    </g>
    <g transform="matrix(0.019378,0,0,-0.019378,-71.445737,119.720538)">
        <path d="M5332,5785C5315,5749 5317,5745 5345,5732C5381,5715 5385,5717 5398,5745C5414,5779 5414,5777 5380,5795C5343,5814 5345,5815 5332,5785Z" style="fill-rule:nonzero;"/>
    </g>
    <g transform="matrix(0.019378,0,0,-0.019378,-71.445737,119.720538)">
        <path d="M4890,5724C4864,5665 4865,5660 4895,5660C4919,5660 4920,5663 4920,5715C4920,5745 4918,5770 4915,5770C4912,5770 4900,5749 4890,5724Z" style="fill-rule:nonzero;"/>
    </g>
    <g transform="matrix(0.019378,0,0,-0.019378,-71.445737,119.720538)">
        <path d="M4930,5715C4930,5663 4931,5660 4956,5660C4977,5660 4980,5663 4974,5682C4962,5720 4940,5770 4935,5770C4932,5770 4930,5745 4930,5715Z" style="fill-rule:nonzero;"/>
    </g>
    <g transform="matrix(0.019378,0,0,-0.019378,-71.445737,119.720538)">
        <path d="M5415,5741C5396,5703 5395,5705 5427,5685C5452,5668 5454,5668 5471,5691C5495,5723 5495,5725 5460,5750L5431,5771L5415,5741Z" style="fill-rule:nonzero;"/>
    </g>
    <g transform="matrix(0.019378,0,0,-0.019378,-71.445737,119.720538)">
        <path d="M3948,5703C3815,5527 3717,5292 3694,5091L3687,5030L3727,5069C3761,5104 3769,5121 3792,5212C3822,5336 3872,5455 3937,5559C3980,5627 3985,5641 3985,5692L3985,5750C3984,5750 3968,5729 3948,5703Z" style="fill-rule:nonzero;"/>
    </g>
    <g transform="matrix(0.019378,0,0,-0.019378,-71.445737,119.720538)">
        <path d="M5877,5713C5873,5710 5870,5702 5870,5696C5870,5690 5875,5691 5882,5698C5888,5704 5891,5712 5889,5715C5886,5718 5880,5717 5877,5713Z" style="fill-rule:nonzero;"/>
    </g>
    <g transform="matrix(0.019378,0,0,-0.019378,-71.445737,119.720538)">
        <path d="M5875,5670C5865,5659 5861,5650 5867,5650C5872,5650 5885,5659 5895,5670C5905,5681 5909,5690 5903,5690C5898,5690 5885,5681 5875,5670Z" style="fill-rule:nonzero;"/>
    </g>
    <g transform="matrix(0.019378,0,0,-0.019378,-71.445737,119.720538)">
        <path d="M5475,5670C5468,5658 5487,5630 5502,5630C5507,5630 5506,5638 5501,5649C5495,5659 5494,5670 5497,5674C5500,5677 5498,5680 5492,5680C5486,5680 5478,5675 5475,5670Z" style="fill-rule:nonzero;"/>
    </g>
    <g transform="matrix(0.019378,0,0,-0.019378,-71.445737,119.720538)">
        <path d="M5891,5649C5878,5638 5870,5627 5872,5624C5875,5621 5891,5630 5906,5644C5940,5674 5926,5679 5891,5649Z" style="fill-rule:nonzero;"/>
    </g>
    <g transform="matrix(0.019378,0,0,-0.019378,-71.445737,119.720538)">
        <path d="M4755,5624C4669,5603 4544,5539 4479,5483C4315,5343 4234,5182 4223,4975C4208,4696 4361,4436 4615,4310C4659,4289 4718,4266 4746,4260C4785,4251 4809,4238 4844,4205C4869,4180 4890,4154 4890,4147C4890,4139 4870,4125 4846,4116C4797,4097 4736,4036 4714,3984C4706,3966 4700,3929 4701,3903L4702,3855L4710,3897C4722,3957 4744,3993 4791,4033C4910,4136 5081,4077 5132,3918C5145,3876 5148,3871 5149,3893C5150,3909 5145,3942 5138,3968C5124,4024 5052,4101 4997,4119C4977,4126 4960,4138 4960,4146C4960,4162 5045,4250 5061,4250C5093,4250 5235,4307 5295,4345C5476,4458 5594,4646 5622,4862C5662,5182 5462,5497 5149,5607C5087,5629 5054,5633 4945,5636C4853,5638 4798,5635 4755,5624ZM5075,5520C5118,5509 5182,5484 5218,5463C5280,5429 5420,5302 5420,5281C5420,5272 5356,5232 5191,5137L5147,5111L5105,5145C5047,5193 4995,5212 4924,5212C4854,5213 4792,5189 4738,5141L4702,5110L4569,5188C4496,5230 4435,5271 4432,5278C4430,5285 4462,5324 4503,5364C4582,5443 4677,5497 4780,5524C4860,5545 4983,5544 5075,5520ZM4517,5133C4667,5049 4671,5045 4659,5013C4645,4975 4648,4900 4667,4845C4691,4778 4760,4709 4831,4683L4885,4662L4888,4539L4890,4415L4810,4349L4752,4365C4604,4408 4455,4533 4388,4671C4340,4770 4315,4890 4324,4979C4334,5081 4370,5200 4390,5200C4395,5200 4453,5170 4517,5133ZM5484,5158C5513,5077 5520,5035 5520,4940C5519,4821 5509,4776 5459,4671C5390,4529 5248,4408 5098,4365L5040,4349L4960,4415L4960,4666L5003,4677C5111,4706 5195,4819 5195,4935C5195,4968 5192,5006 5188,5020C5181,5045 5188,5050 5313,5123C5386,5165 5450,5200 5457,5200C5463,5200 5475,5181 5484,5158ZM5010,5110C5072,5078 5103,5029 5108,4955C5114,4862 5077,4799 4997,4765C4893,4722 4769,4782 4739,4892C4697,5048 4865,5184 5010,5110ZM5003,4360C5095,4258 4944,4119 4846,4217C4794,4268 4815,4360 4885,4391C4921,4407 4973,4393 5003,4360Z" style="fill-rule:nonzero;"/>
    </g>
    <g transform="matrix(0.019378,0,0,-0.019378,-71.445737,119.720538)">
        <path d="M4858,5520C4801,5513 4797,5510 4772,5442L4752,5390L4781,5374C4797,5366 4815,5362 4819,5365C4832,5372 4911,5511 4908,5519C4906,5522 4884,5523 4858,5520Z" style="fill-rule:nonzero;"/>
    </g>
    <g transform="matrix(0.019378,0,0,-0.019378,-71.445737,119.720538)">
        <path d="M4940,5514C4940,5507 5009,5384 5025,5362C5026,5361 5041,5365 5058,5371C5096,5384 5097,5393 5066,5464L5042,5518L4991,5521C4959,5524 4940,5521 4940,5514Z" style="fill-rule:nonzero;"/>
    </g>
    <g transform="matrix(0.019378,0,0,-0.019378,-71.445737,119.720538)">
        <path d="M4701,5481C4665,5466 4635,5450 4633,5444C4630,5436 4710,5400 4731,5400C4737,5400 4780,5492 4780,5504C4780,5513 4769,5510 4701,5481Z" style="fill-rule:nonzero;"/>
    </g>
    <g transform="matrix(0.019378,0,0,-0.019378,-71.445737,119.720538)">
        <path d="M5070,5502C5070,5498 5080,5472 5091,5444L5112,5393L5166,5414C5195,5426 5220,5438 5220,5441C5220,5447 5159,5477 5108,5496C5087,5503 5070,5506 5070,5502Z" style="fill-rule:nonzero;"/>
    </g>
    <g transform="matrix(0.019378,0,0,-0.019378,-71.445737,119.720538)">
        <path d="M4855,5383C4818,5318 4774,5244 4759,5217C4725,5162 4723,5150 4749,5174C4780,5202 4867,5230 4924,5230C4985,5230 5028,5217 5084,5183C5105,5169 5120,5162 5117,5167C5115,5171 5075,5240 5030,5320C4984,5400 4941,5473 4935,5483C4924,5499 4914,5487 4855,5383Z" style="fill-rule:nonzero;"/>
    </g>
    <g transform="matrix(0.019378,0,0,-0.019378,-71.445737,119.720538)">
        <path d="M4562,5399C4539,5382 4520,5365 4520,5361C4520,5352 4659,5215 4663,5221C4665,5223 4680,5259 4697,5300L4729,5375L4672,5402C4641,5416 4613,5429 4609,5429C4606,5430 4585,5416 4562,5399Z" style="fill-rule:nonzero;"/>
    </g>
    <g transform="matrix(0.019378,0,0,-0.019378,-71.445737,119.720538)">
        <path d="M5183,5406C5155,5394 5129,5382 5126,5379C5119,5372 5180,5220 5189,5220C5198,5220 5335,5359 5329,5363C5327,5364 5308,5380 5287,5398C5266,5416 5246,5430 5242,5429C5238,5429 5212,5418 5183,5406Z" style="fill-rule:nonzero;"/>
    </g>
    <g transform="matrix(0.019378,0,0,-0.019378,-71.445737,119.720538)">
        <path d="M4712,5298C4696,5258 4683,5224 4685,5222C4686,5220 4704,5225 4723,5234C4746,5243 4767,5264 4784,5292C4798,5317 4810,5339 4810,5342C4810,5347 4755,5370 4745,5370C4744,5370 4729,5337 4712,5298Z" style="fill-rule:nonzero;"/>
    </g>
    <g transform="matrix(0.019378,0,0,-0.019378,-71.445737,119.720538)">
        <path d="M5070,5359C5035,5345 5035,5346 5065,5293C5083,5259 5101,5240 5122,5232C5140,5226 5156,5222 5158,5225C5164,5230 5109,5370 5101,5369C5098,5369 5084,5364 5070,5359Z" style="fill-rule:nonzero;"/>
    </g>
    <g transform="matrix(0.019378,0,0,-0.019378,-71.445737,119.720538)">
        <path d="M4475,5316C4443,5273 4440,5276 4544,5220C4594,5193 4613,5188 4629,5196C4649,5204 4646,5210 4577,5278L4503,5352L4475,5316Z" style="fill-rule:nonzero;"/>
    </g>
    <g transform="matrix(0.019378,0,0,-0.019378,-71.445737,119.720538)">
        <path d="M5270,5275C5198,5202 5197,5201 5223,5195C5244,5189 5267,5198 5325,5231C5366,5255 5400,5277 5399,5280C5399,5283 5387,5300 5372,5317L5344,5349L5270,5275Z" style="fill-rule:nonzero;"/>
    </g>
    <g transform="matrix(0.019378,0,0,-0.019378,-71.445737,119.720538)">
        <path d="M4702,5207C4685,5197 4682,5192 4692,5182C4709,5165 4715,5167 4728,5195C4741,5223 4736,5225 4702,5207Z" style="fill-rule:nonzero;"/>
    </g>
    <g transform="matrix(0.019378,0,0,-0.019378,-71.445737,119.720538)">
        <path d="M5110,5213C5110,5208 5117,5196 5125,5186C5137,5170 5143,5169 5153,5179C5163,5189 5161,5194 5146,5206C5124,5221 5110,5224 5110,5213Z" style="fill-rule:nonzero;"/>
    </g>
    <g transform="matrix(0.019378,0,0,-0.019378,-71.445737,119.720538)">
        <path d="M4660,5166C4660,5152 4689,5135 4698,5145C4704,5151 4680,5180 4669,5180C4664,5180 4660,5174 4660,5166Z" style="fill-rule:nonzero;"/>
    </g>
    <g transform="matrix(0.019378,0,0,-0.019378,-71.445737,119.720538)">
        <path d="M5160,5165C5153,5156 5149,5147 5152,5145C5161,5135 5190,5152 5190,5166C5190,5184 5176,5184 5160,5165Z" style="fill-rule:nonzero;"/>
    </g>
    <g transform="matrix(0.019378,0,0,-0.019378,-71.445737,119.720538)">
        <path d="M4380,5155C4375,5141 4367,5118 4364,5104L4358,5080L4406,5101C4474,5129 4478,5136 4439,5159C4396,5186 4392,5185 4380,5155Z" style="fill-rule:nonzero;"/>
    </g>
    <g transform="matrix(0.019378,0,0,-0.019378,-71.445737,119.720538)">
        <path d="M4504,5097C4507,5084 4520,5049 4534,5019L4558,4965L4579,5013C4591,5040 4600,5063 4600,5065C4600,5069 4510,5120 4503,5120C4500,5120 4500,5110 4504,5097Z" style="fill-rule:nonzero;"/>
    </g>
    <g transform="matrix(0.019378,0,0,-0.019378,-71.445737,119.720538)">
        <path d="M4411,5087C4353,5063 4342,5047 4341,4988L4340,4950L4440,4950C4495,4950 4540,4953 4540,4956C4540,4969 4477,5110 4472,5110C4468,5109 4441,5099 4411,5087Z" style="fill-rule:nonzero;"/>
    </g>
    <g transform="matrix(0.019378,0,0,-0.019378,-71.445737,119.720538)">
        <path d="M4600,5025C4594,5011 4586,4989 4580,4975C4575,4961 4574,4950 4578,4950C4589,4950 4639,5037 4633,5044C4621,5056 4609,5049 4600,5025Z" style="fill-rule:nonzero;"/>
    </g>
    <g transform="matrix(0.019378,0,0,-0.019378,-71.445737,119.720538)">
        <path d="M4536,4829C4482,4736 4440,4657 4443,4654C4445,4652 4537,4651 4646,4652L4845,4655L4800,4678C4696,4732 4638,4825 4636,4937C4635,4972 4635,5000 4634,5000C4634,5000 4589,4923 4536,4829Z" style="fill-rule:nonzero;"/>
    </g>
    <g transform="matrix(0.019378,0,0,-0.019378,-71.445737,119.720538)">
        <path d="M4340,4906C4340,4842 4352,4820 4395,4801C4479,4764 4474,4762 4509,4845C4526,4886 4540,4922 4540,4925C4540,4928 4495,4930 4440,4930C4341,4930 4340,4930 4340,4906Z" style="fill-rule:nonzero;"/>
    </g>
    <g transform="matrix(0.019378,0,0,-0.019378,-71.445737,119.720538)">
        <path d="M4360,4785C4360,4759 4410,4656 4419,4666C4423,4671 4437,4692 4449,4712C4474,4753 4475,4751 4398,4783C4366,4797 4360,4797 4360,4785Z" style="fill-rule:nonzero;"/>
    </g>
    <g transform="matrix(0.019378,0,0,-0.019378,-71.445737,119.720538)">
        <path d="M4440,4624C4440,4606 4491,4540 4505,4540C4517,4540 4600,4622 4600,4633C4600,4637 4564,4640 4520,4640C4454,4640 4440,4637 4440,4624Z" style="fill-rule:nonzero;"/>
    </g>
    <g transform="matrix(0.019378,0,0,-0.019378,-71.445737,119.720538)">
        <path d="M4576,4581C4544,4549 4520,4518 4523,4513C4527,4508 4547,4491 4568,4476L4607,4449L4729,4505L4701,4570C4665,4656 4651,4657 4576,4581Z" style="fill-rule:nonzero;"/>
    </g>
    <g transform="matrix(0.019378,0,0,-0.019378,-71.445737,119.720538)">
        <path d="M4700,4628C4700,4621 4710,4592 4722,4563C4746,4505 4744,4505 4826,4541C4850,4552 4870,4567 4870,4574C4870,4589 4756,4640 4723,4640C4710,4640 4700,4634 4700,4628Z" style="fill-rule:nonzero;"/>
    </g>
    <g transform="matrix(0.019378,0,0,-0.019378,-71.445737,119.720538)">
        <path d="M4810,4631C4845,4611 4870,4608 4870,4624C4870,4636 4860,4640 4833,4640C4807,4639 4800,4637 4810,4631Z" style="fill-rule:nonzero;"/>
    </g>
    <g transform="matrix(0.019378,0,0,-0.019378,-71.445737,119.720538)">
        <path d="M4802,4515L4750,4491L4775,4434C4789,4403 4800,4376 4800,4373C4800,4371 4816,4381 4835,4396C4868,4421 4870,4426 4870,4481C4870,4514 4867,4540 4863,4539C4858,4539 4831,4528 4802,4515Z" style="fill-rule:nonzero;"/>
    </g>
    <g transform="matrix(0.019378,0,0,-0.019378,-71.445737,119.720538)">
        <path d="M4668,4462C4647,4452 4630,4442 4630,4439C4630,4430 4744,4380 4763,4380C4777,4380 4776,4387 4758,4430C4735,4485 4727,4488 4668,4462Z" style="fill-rule:nonzero;"/>
    </g>
    <g transform="matrix(0.019378,0,0,-0.019378,-71.445737,119.720538)">
        <path d="M5412,5162C5394,5154 5381,5142 5383,5137C5385,5131 5410,5117 5439,5104L5491,5081L5485,5103C5473,5145 5458,5180 5451,5179C5448,5179 5430,5171 5412,5162Z" style="fill-rule:nonzero;"/>
    </g>
    <g transform="matrix(0.019378,0,0,-0.019378,-71.445737,119.720538)">
        <path d="M5292,5093C5268,5079 5251,5062 5253,5056C5255,5050 5263,5028 5271,5008C5278,4987 5286,4970 5290,4970C5295,4970 5350,5100 5350,5113C5350,5125 5337,5120 5292,5093Z" style="fill-rule:nonzero;"/>
    </g>
    <g transform="matrix(0.019378,0,0,-0.019378,-71.445737,119.720538)">
        <path d="M5355,5076C5347,5056 5333,5024 5325,5004C5317,4984 5310,4964 5310,4959C5310,4954 5355,4950 5410,4950C5521,4950 5516,4946 5503,5023C5498,5057 5491,5064 5456,5080C5373,5115 5371,5115 5355,5076Z" style="fill-rule:nonzero;"/>
    </g>
    <g transform="matrix(0.019378,0,0,-0.019378,-71.445737,119.720538)">
        <path d="M5210,5044C5210,5032 5262,4950 5270,4950C5275,4950 5270,4973 5258,5000C5247,5028 5231,5050 5224,5050C5216,5050 5210,5047 5210,5044Z" style="fill-rule:nonzero;"/>
    </g>
    <g transform="matrix(0.019378,0,0,-0.019378,-71.445737,119.720538)">
        <path d="M5213,4931C5212,4864 5177,4780 5133,4738C5117,4723 5080,4697 5050,4681L4995,4650L5204,4650C5392,4650 5412,4652 5406,4666C5399,4685 5231,4972 5221,4982C5218,4986 5214,4963 5213,4931Z" style="fill-rule:nonzero;"/>
    </g>
    <g transform="matrix(0.019378,0,0,-0.019378,-71.445737,119.720538)">
        <path d="M5310,4923C5310,4912 5362,4786 5370,4777C5374,4772 5404,4780 5436,4793C5498,4819 5506,4832 5509,4903L5510,4930L5410,4930C5355,4930 5310,4927 5310,4923Z" style="fill-rule:nonzero;"/>
    </g>
    <g transform="matrix(0.019378,0,0,-0.019378,-71.445737,119.720538)">
        <path d="M5435,4777C5408,4766 5384,4755 5382,4754C5377,4751 5419,4672 5429,4666C5438,4660 5494,4775 5488,4789C5486,4793 5463,4788 5435,4777Z" style="fill-rule:nonzero;"/>
    </g>
    <g transform="matrix(0.019378,0,0,-0.019378,-71.445737,119.720538)">
        <path d="M4977,4633C4961,4618 4972,4608 4998,4615C5039,4625 5049,4640 5014,4640C4997,4640 4980,4637 4977,4633Z" style="fill-rule:nonzero;"/>
    </g>
    <g transform="matrix(0.019378,0,0,-0.019378,-71.445737,119.720538)">
        <path d="M5038,4613C5006,4598 4980,4581 4980,4574C4980,4567 5000,4552 5024,4541C5108,4504 5105,4504 5129,4566C5140,4597 5150,4626 5150,4631C5150,4647 5096,4639 5038,4613Z" style="fill-rule:nonzero;"/>
    </g>
    <g transform="matrix(0.019378,0,0,-0.019378,-71.445737,119.720538)">
        <path d="M5149,4574C5132,4538 5120,4506 5122,4505C5124,4503 5152,4490 5184,4476L5243,4450L5278,4477C5298,4493 5319,4508 5324,4512C5339,4522 5221,4640 5197,4640C5184,4640 5170,4621 5149,4574Z" style="fill-rule:nonzero;"/>
    </g>
    <g transform="matrix(0.019378,0,0,-0.019378,-71.445737,119.720538)">
        <path d="M5250,4632C5250,4628 5271,4604 5296,4580L5341,4535L5376,4572C5430,4631 5424,4640 5330,4640C5286,4640 5250,4636 5250,4632Z" style="fill-rule:nonzero;"/>
    </g>
    <g transform="matrix(0.019378,0,0,-0.019378,-71.445737,119.720538)">
        <path d="M4980,4475C4980,4439 4984,4410 4988,4410C4993,4410 5006,4401 5019,4389C5031,4377 5043,4370 5044,4371C5046,4373 5059,4401 5073,4433L5099,4491L5043,4515C5013,4529 4986,4540 4984,4540C4982,4540 4980,4511 4980,4475Z" style="fill-rule:nonzero;"/>
    </g>
    <g transform="matrix(0.019378,0,0,-0.019378,-71.445737,119.720538)">
        <path d="M5093,4441C5083,4416 5073,4391 5071,4386C5069,4382 5083,4381 5101,4385C5138,4393 5220,4431 5220,4439C5220,4443 5196,4455 5166,4466L5112,4487L5093,4441Z" style="fill-rule:nonzero;"/>
    </g>
    <g transform="matrix(0.019378,0,0,-0.019378,-71.445737,119.720538)">
        <path d="M4867,5106C4819,5088 4793,5065 4769,5018C4731,4944 4755,4846 4822,4799C4866,4767 4958,4761 5006,4786C5052,4811 5091,4870 5097,4923C5111,5047 4983,5149 4867,5106Z" style="fill-rule:nonzero;"/>
    </g>
    <g transform="matrix(0.019378,0,0,-0.019378,-71.445737,119.720538)">
        <path d="M4858,4350C4832,4323 4828,4314 4833,4283C4842,4232 4875,4200 4920,4200C4988,4200 5034,4261 5010,4320C4982,4387 4909,4401 4858,4350Z" style="fill-rule:nonzero;"/>
    </g>
    <g transform="matrix(0.019378,0,0,-0.019378,-71.445737,119.720538)">
        <path d="M5909,5619C5890,5603 5889,5601 5905,5609C5939,5626 5956,5640 5944,5640C5937,5640 5922,5631 5909,5619Z" style="fill-rule:nonzero;"/>
    </g>
    <g transform="matrix(0.019378,0,0,-0.019378,-71.445737,119.720538)">
        <path d="M3958,5562C3884,5445 3812,5271 3795,5163L3788,5121L3837,5123C3863,5124 3899,5121 3917,5117C3948,5109 3949,5110 3960,5152C3985,5250 4028,5359 4071,5435L4117,5515L4088,5529C4072,5537 4044,5560 4027,5581L3994,5618L3958,5562Z" style="fill-rule:nonzero;"/>
    </g>
    <g transform="matrix(0.019378,0,0,-0.019378,-71.445737,119.720538)">
        <path d="M5928,5602C5890,5579 5892,5564 5930,5587C5947,5596 5960,5608 5960,5612C5960,5622 5960,5622 5928,5602Z" style="fill-rule:nonzero;"/>
    </g>
    <g transform="matrix(0.019378,0,0,-0.019378,-71.445737,119.720538)">
        <path d="M5822,5579C5809,5563 5784,5542 5767,5533C5749,5525 5733,5516 5731,5514C5729,5513 5737,5498 5749,5482C5787,5428 5854,5278 5876,5196C5896,5121 5899,5115 5921,5118C5934,5120 5971,5122 6002,5122L6059,5123L6054,5154C6040,5231 5985,5389 5944,5467C5896,5559 5863,5610 5852,5609C5848,5609 5834,5596 5822,5579Z" style="fill-rule:nonzero;"/>
    </g>
    <g transform="matrix(0.019378,0,0,-0.019378,-71.445737,119.720538)">
        <path d="M5934,5569L5915,5547L5948,5564C5982,5582 5988,5590 5967,5590C5959,5590 5945,5580 5934,5569Z" style="fill-rule:nonzero;"/>
    </g>
    <g transform="matrix(0.019378,0,0,-0.019378,-71.445737,119.720538)">
        <path d="M5958,5552C5920,5529 5922,5516 5960,5535C5977,5544 5990,5555 5990,5560C5990,5573 5990,5573 5958,5552Z" style="fill-rule:nonzero;"/>
    </g>
    <g transform="matrix(0.019378,0,0,-0.019378,-71.445737,119.720538)">
        <path d="M4227,5478C4130,5351 4062,5179 4046,5018C4039,4949 4039,4949 4135,4989L4204,5018L4222,5094C4242,5180 4284,5279 4329,5344C4346,5368 4360,5391 4360,5395C4360,5409 4296,5550 4290,5550C4286,5550 4257,5517 4227,5478Z" style="fill-rule:nonzero;"/>
    </g>
    <g transform="matrix(0.019378,0,0,-0.019378,-71.445737,119.720538)">
        <path d="M5543,5533C5540,5523 5526,5491 5513,5461C5501,5432 5490,5403 5490,5397C5490,5392 5508,5358 5531,5322C5576,5251 5611,5165 5630,5078L5643,5021L5716,4990C5756,4974 5793,4960 5798,4960C5822,4960 5782,5172 5739,5276C5698,5374 5580,5550 5555,5550C5552,5550 5547,5542 5543,5533Z" style="fill-rule:nonzero;"/>
    </g>
    <g transform="matrix(0.019378,0,0,-0.019378,-71.445737,119.720538)">
        <path d="M5967,5524C5951,5515 5940,5506 5943,5503C5949,5498 6010,5527 6010,5535C6010,5543 5996,5540 5967,5524Z" style="fill-rule:nonzero;"/>
    </g>
    <g transform="matrix(0.019378,0,0,-0.019378,-71.445737,119.720538)">
        <path d="M4382,5495C4413,5462 4421,5458 4434,5469C4461,5492 4455,5497 4360,5528C4352,5530 4362,5516 4382,5495Z" style="fill-rule:nonzero;"/>
    </g>
    <g transform="matrix(0.019378,0,0,-0.019378,-71.445737,119.720538)">
        <path d="M5465,5520C5454,5516 5432,5507 5416,5501L5387,5489L5409,5473C5431,5458 5434,5459 5468,5494C5504,5530 5504,5536 5465,5520Z" style="fill-rule:nonzero;"/>
    </g>
    <g transform="matrix(0.019378,0,0,-0.019378,-71.445737,119.720538)">
        <path d="M4196,5511C4182,5506 4180,5501 4189,5496C4204,5487 4230,5495 4230,5510C4230,5521 4223,5522 4196,5511Z" style="fill-rule:nonzero;"/>
    </g>
    <g transform="matrix(0.019378,0,0,-0.019378,-71.445737,119.720538)">
        <path d="M4331,5515C4331,5509 4341,5483 4353,5456C4374,5409 4376,5409 4392,5427C4409,5445 4408,5448 4370,5485C4348,5507 4330,5520 4331,5515Z" style="fill-rule:nonzero;"/>
    </g>
    <g transform="matrix(0.019378,0,0,-0.019378,-71.445737,119.720538)">
        <path d="M5477,5482C5445,5448 5443,5443 5456,5426C5463,5415 5472,5408 5474,5411C5482,5420 5520,5513 5517,5516C5515,5518 5497,5503 5477,5482Z" style="fill-rule:nonzero;"/>
    </g>
    <g transform="matrix(0.019378,0,0,-0.019378,-71.445737,119.720538)">
        <path d="M5635,5488C5707,5402 5778,5243 5806,5106L5823,5019L5842,5049C5853,5066 5866,5080 5871,5080C5899,5080 5855,5242 5795,5365C5734,5488 5716,5507 5658,5513L5610,5518L5635,5488Z" style="fill-rule:nonzero;"/>
    </g>
    <g transform="matrix(0.019378,0,0,-0.019378,-71.445737,119.720538)">
        <path d="M5988,5502C5950,5479 5952,5466 5990,5485C6007,5494 6020,5505 6020,5510C6020,5522 6022,5522 5988,5502Z" style="fill-rule:nonzero;"/>
    </g>
    <g transform="matrix(0.019378,0,0,-0.019378,-71.445737,119.720538)">
        <path d="M4117,5481C4095,5443 4095,5443 4129,5426C4157,5411 4159,5412 4174,5435C4195,5468 4194,5475 4165,5494C4134,5514 4137,5515 4117,5481Z" style="fill-rule:nonzero;"/>
    </g>
    <g transform="matrix(0.019378,0,0,-0.019378,-71.445737,119.720538)">
        <path d="M5997,5473C5981,5465 5970,5456 5973,5454C5980,5446 6030,5469 6030,5480C6030,5485 6029,5490 6028,5489C6026,5488 6012,5481 5997,5473Z" style="fill-rule:nonzero;"/>
    </g>
    <g transform="matrix(0.019378,0,0,-0.019378,-71.445737,119.720538)">
        <path d="M6013,5448C6000,5442 5990,5433 5990,5428C5990,5423 6004,5426 6020,5435C6065,5458 6058,5470 6013,5448Z" style="fill-rule:nonzero;"/>
    </g>
    <g transform="matrix(0.019378,0,0,-0.019378,-71.445737,119.720538)">
        <path d="M4067,5401C4045,5363 4045,5365 4081,5349C4109,5338 4114,5339 4126,5355C4146,5381 4143,5396 4118,5414C4088,5435 4087,5435 4067,5401Z" style="fill-rule:nonzero;"/>
    </g>
    <g transform="matrix(0.019378,0,0,-0.019378,-71.445737,119.720538)">
        <path d="M6021,5419C6008,5414 5999,5407 6002,5405C6008,5399 6060,5417 6060,5425C6060,5432 6049,5430 6021,5419Z" style="fill-rule:nonzero;"/>
    </g>
    <g transform="matrix(0.019378,0,0,-0.019378,-71.445737,119.720538)">
        <path d="M6024,5384C6006,5370 6006,5369 6030,5376C6061,5384 6080,5400 6059,5400C6051,5400 6035,5393 6024,5384Z" style="fill-rule:nonzero;"/>
    </g>
    <g transform="matrix(0.019378,0,0,-0.019378,-71.445737,119.720538)">
        <path d="M6048,5367C6010,5352 6012,5338 6050,5351C6067,5357 6080,5366 6080,5371C6080,5376 6079,5380 6078,5379C6076,5378 6063,5373 6048,5367Z" style="fill-rule:nonzero;"/>
    </g>
    <g transform="matrix(0.019378,0,0,-0.019378,-71.445737,119.720538)">
        <path d="M4031,5324C4014,5285 4018,5273 4050,5261C4078,5252 4082,5253 4090,5276C4104,5313 4103,5318 4071,5334C4044,5348 4042,5348 4031,5324Z" style="fill-rule:nonzero;"/>
    </g>
    <g transform="matrix(0.019378,0,0,-0.019378,-71.445737,119.720538)">
        <path d="M6055,5334L6025,5320L6055,5326C6086,5332 6096,5337 6089,5344C6087,5346 6072,5342 6055,5334Z" style="fill-rule:nonzero;"/>
    </g>
    <g transform="matrix(0.019378,0,0,-0.019378,-71.445737,119.720538)">
        <path d="M6055,5305C6039,5298 6032,5291 6040,5291C6065,5290 6100,5302 6100,5311C6100,5323 6091,5322 6055,5305Z" style="fill-rule:nonzero;"/>
    </g>
    <g transform="matrix(0.019378,0,0,-0.019378,-71.445737,119.720538)">
        <path d="M6065,5274C6039,5262 6038,5260 6060,5265C6074,5267 6091,5270 6098,5270C6104,5270 6110,5275 6110,5280C6110,5293 6101,5292 6065,5274Z" style="fill-rule:nonzero;"/>
    </g>
    <g transform="matrix(0.019378,0,0,-0.019378,-71.445737,119.720538)">
        <path d="M3996,5238C3985,5194 3989,5182 4021,5175C4057,5167 4058,5168 4066,5207C4071,5234 4069,5238 4039,5249C4022,5255 4006,5260 4005,5260C4003,5260 4000,5250 3996,5238Z" style="fill-rule:nonzero;"/>
    </g>
    <g transform="matrix(0.019378,0,0,-0.019378,-71.445737,119.720538)">
        <path d="M6073,5250C6060,5245 6050,5238 6050,5235C6050,5227 6103,5241 6115,5251C6127,5263 6102,5262 6073,5250Z" style="fill-rule:nonzero;"/>
    </g>
    <g transform="matrix(0.019378,0,0,-0.019378,-71.445737,119.720538)">
        <path d="M6075,5220C6057,5212 6057,5211 6080,5211C6094,5211 6112,5215 6120,5220C6132,5228 6132,5230 6115,5229C6104,5229 6086,5225 6075,5220Z" style="fill-rule:nonzero;"/>
    </g>
    <g transform="matrix(0.019378,0,0,-0.019378,-71.445737,119.720538)">
        <path d="M6075,5190C6057,5182 6057,5181 6080,5181C6094,5181 6112,5185 6120,5190C6132,5198 6132,5200 6115,5199C6104,5199 6086,5195 6075,5190Z" style="fill-rule:nonzero;"/>
    </g>
    <g transform="matrix(0.019378,0,0,-0.019378,-71.445737,119.720538)">
        <path d="M3976,5153C3961,5115 3970,5092 4001,5085C4038,5077 4039,5077 4042,5120C4045,5151 4042,5154 4013,5160C3990,5165 3980,5163 3976,5153Z" style="fill-rule:nonzero;"/>
    </g>
    <g transform="matrix(0.019378,0,0,-0.019378,-71.445737,119.720538)">
        <path d="M6080,5160C6068,5152 6068,5150 6085,5151C6096,5151 6114,5155 6125,5160C6143,5168 6143,5169 6120,5169C6106,5169 6088,5165 6080,5160Z" style="fill-rule:nonzero;"/>
    </g>
    <g transform="matrix(0.019378,0,0,-0.019378,-71.445737,119.720538)">
        <path d="M6080,5130C6080,5119 6094,5119 6130,5130C6152,5137 6151,5138 6118,5139C6097,5140 6080,5136 6080,5130Z" style="fill-rule:nonzero;"/>
    </g>
    <g transform="matrix(0.019378,0,0,-0.019378,-71.445737,119.720538)">
        <path d="M3781,5093C3763,5084 3734,5058 3719,5037C3695,5004 3690,4987 3690,4940C3690,4893 3695,4876 3719,4843C3792,4742 3950,4753 4006,4862C4026,4902 4027,4977 4007,5016C3965,5097 3861,5132 3781,5093ZM3947,5064C3989,5032 4010,4991 4010,4940C4010,4797 3828,4731 3735,4841C3671,4918 3702,5045 3795,5086C3837,5106 3906,5096 3947,5064Z" style="fill-rule:nonzero;"/>
    </g>
    <g transform="matrix(0.019378,0,0,-0.019378,-71.445737,119.720538)">
        <path d="M3783,5060C3669,4991 3718,4800 3850,4800C3921,4800 3971,4840 3991,4913C3999,4943 3997,4958 3982,4994C3947,5072 3854,5104 3783,5060Z" style="fill-rule:nonzero;"/>
    </g>
    <g transform="matrix(0.019378,0,0,-0.019378,-71.445737,119.720538)">
        <path d="M5925,5096C5884,5078 5843,5029 5829,4980C5799,4882 5887,4770 5992,4770C6045,4770 6107,4807 6135,4854C6217,4995 6073,5160 5925,5096ZM6073,5074C6167,5025 6170,4874 6079,4813C6030,4781 5951,4778 5911,4807C5837,4863 5817,4961 5865,5033C5879,5053 5892,5070 5893,5070C5894,5070 5913,5077 5935,5085C5979,5101 6027,5097 6073,5074Z" style="fill-rule:nonzero;"/>
    </g>
    <g transform="matrix(0.019378,0,0,-0.019378,-71.445737,119.720538)">
        <path d="M5920,5058C5829,4997 5831,4876 5923,4820C5983,4783 6052,4799 6105,4862C6129,4890 6132,4900 6128,4948C6124,4993 6118,5007 6088,5037C6040,5085 5972,5094 5920,5058Z" style="fill-rule:nonzero;"/>
    </g>
    <g transform="matrix(0.019378,0,0,-0.019378,-71.445737,119.720538)">
        <path d="M6090,5100C6090,5088 6107,5088 6135,5100C6152,5107 6150,5109 6123,5109C6105,5110 6090,5106 6090,5100Z" style="fill-rule:nonzero;"/>
    </g>
    <g transform="matrix(0.019378,0,0,-0.019378,-71.445737,119.720538)">
        <path d="M6128,5073C6135,5070 6144,5071 6147,5074C6151,5077 6145,5080 6134,5079C6123,5079 6120,5076 6128,5073Z" style="fill-rule:nonzero;"/>
    </g>
    <g transform="matrix(0.019378,0,0,-0.019378,-71.445737,119.720538)">
        <path d="M4000,5062C4000,5057 4007,5045 4015,5034C4029,5016 4029,5016 4030,5043C4030,5060 4025,5070 4015,5070C4007,5070 4000,5066 4000,5062Z" style="fill-rule:nonzero;"/>
    </g>
    <g transform="matrix(0.019378,0,0,-0.019378,-71.445737,119.720538)">
        <path d="M4145,4975L4095,4952L4148,4951C4176,4950 4200,4954 4200,4959C4200,4964 4203,4975 4206,4984C4214,5005 4205,5004 4145,4975Z" style="fill-rule:nonzero;"/>
    </g>
    <g transform="matrix(0.019378,0,0,-0.019378,-71.445737,119.720538)">
        <path d="M5640,4975C5640,4951 5642,4950 5703,4950L5765,4951L5706,4975C5673,4989 5645,5000 5643,5000C5641,5000 5640,4989 5640,4975Z" style="fill-rule:nonzero;"/>
    </g>
    <g transform="matrix(0.019378,0,0,-0.019378,-71.445737,119.720538)">
        <path d="M4144,4905C4177,4891 4205,4882 4208,4884C4210,4887 4209,4898 4205,4909C4200,4927 4191,4930 4142,4930L4085,4929L4144,4905Z" style="fill-rule:nonzero;"/>
    </g>
    <g transform="matrix(0.019378,0,0,-0.019378,-71.445737,119.720538)">
        <path d="M5640,4905C5640,4891 5641,4880 5643,4880C5645,4880 5673,4891 5706,4905L5765,4929L5703,4930C5642,4930 5640,4929 5640,4905Z" style="fill-rule:nonzero;"/>
    </g>
    <g transform="matrix(0.019378,0,0,-0.019378,-71.445737,119.720538)">
        <path d="M4045,4858C4061,4720 4109,4581 4178,4470C4219,4406 4279,4330 4290,4330C4294,4330 4312,4366 4330,4409L4362,4489L4332,4532C4281,4606 4248,4681 4226,4773L4204,4862L4135,4891C4037,4932 4037,4932 4045,4858Z" style="fill-rule:nonzero;"/>
    </g>
    <g transform="matrix(0.019378,0,0,-0.019378,-71.445737,119.720538)">
        <path d="M5710,4890L5645,4861L5623,4778C5597,4677 5572,4618 5525,4544L5488,4487L5518,4411C5534,4370 5551,4335 5556,4333C5573,4328 5670,4465 5714,4555C5781,4691 5827,4912 5790,4917C5782,4917 5746,4905 5710,4890Z" style="fill-rule:nonzero;"/>
    </g>
    <g transform="matrix(0.019378,0,0,-0.019378,-71.445737,119.720538)">
        <path d="M3998,4826C3982,4807 3970,4782 3970,4772C3970,4706 4066,4465 4123,4389C4134,4375 4230,4355 4230,4367C4230,4370 4219,4385 4205,4402C4137,4482 4062,4660 4040,4788C4034,4827 4027,4860 4027,4860C4026,4860 4013,4844 3998,4826Z" style="fill-rule:nonzero;"/>
    </g>
    <g transform="matrix(0.019378,0,0,-0.019378,-71.445737,119.720538)">
        <path d="M5817,4840C5814,4827 5817,4817 5826,4813C5849,4805 5854,4816 5837,4840L5823,4861L5817,4840Z" style="fill-rule:nonzero;"/>
    </g>
    <g transform="matrix(0.019378,0,0,-0.019378,-71.445737,119.720538)">
        <path d="M6116,4807C6085,4775 6074,4754 6063,4703C6034,4564 5970,4411 5894,4295C5863,4249 5859,4236 5862,4189L5865,4135L5918,4205C5985,4295 6071,4462 6104,4568C6127,4643 6166,4839 6158,4845C6156,4846 6137,4829 6116,4807Z" style="fill-rule:nonzero;"/>
    </g>
    <g transform="matrix(0.019378,0,0,-0.019378,-71.445737,119.720538)">
        <path d="M3698,4803C3704,4801 3716,4801 3723,4803C3729,4806 3724,4808 3710,4808C3696,4808 3691,4806 3698,4803Z" style="fill-rule:nonzero;"/>
    </g>
    <g transform="matrix(0.019378,0,0,-0.019378,-71.445737,119.720538)">
        <path d="M5805,4769C5797,4734 5809,4720 5847,4720C5874,4720 5891,4777 5869,4791C5838,4810 5812,4801 5805,4769Z" style="fill-rule:nonzero;"/>
    </g>
    <g transform="matrix(0.019378,0,0,-0.019378,-71.445737,119.720538)">
        <path d="M3710,4780C3698,4772 3701,4770 3723,4770C3738,4770 3750,4775 3750,4780C3750,4793 3730,4793 3710,4780Z" style="fill-rule:nonzero;"/>
    </g>
    <g transform="matrix(0.019378,0,0,-0.019378,-71.445737,119.720538)">
        <path d="M3925,4768C3915,4762 3880,4757 3848,4757C3813,4757 3790,4752 3790,4746C3790,4740 3801,4692 3815,4640C3841,4544 3930,4349 3973,4296L3997,4266L4031,4305C4049,4326 4076,4348 4091,4354L4117,4365L4069,4449C4029,4519 3990,4621 3951,4757C3946,4775 3942,4777 3925,4768Z" style="fill-rule:nonzero;"/>
    </g>
    <g transform="matrix(0.019378,0,0,-0.019378,-71.445737,119.720538)">
        <path d="M5896,4768C5894,4761 5887,4733 5881,4705C5862,4626 5824,4531 5775,4445C5750,4402 5730,4365 5730,4363C5730,4361 5737,4360 5745,4360C5753,4360 5781,4340 5807,4315C5832,4290 5855,4270 5856,4270C5857,4270 5879,4303 5904,4343C5973,4454 6019,4573 6054,4732C6060,4759 6060,4759 6002,4758C5970,4758 5934,4763 5922,4769C5904,4778 5899,4778 5896,4768Z" style="fill-rule:nonzero;"/>
    </g>
    <g transform="matrix(0.019378,0,0,-0.019378,-71.445737,119.720538)">
        <path d="M3710,4750C3698,4742 3700,4740 3720,4740C3734,4740 3752,4745 3760,4750C3772,4758 3770,4760 3750,4760C3736,4760 3718,4755 3710,4750Z" style="fill-rule:nonzero;"/>
    </g>
    <g transform="matrix(0.019378,0,0,-0.019378,-71.445737,119.720538)">
        <path d="M3720,4720C3708,4712 3708,4710 3725,4711C3736,4711 3754,4715 3765,4720C3783,4728 3783,4729 3760,4729C3746,4729 3728,4725 3720,4720Z" style="fill-rule:nonzero;"/>
    </g>
    <g transform="matrix(0.019378,0,0,-0.019378,-71.445737,119.720538)">
        <path d="M5786,4688C5776,4649 5779,4642 5810,4631C5838,4622 5842,4623 5850,4646C5865,4684 5862,4697 5838,4704C5801,4714 5793,4711 5786,4688Z" style="fill-rule:nonzero;"/>
    </g>
    <g transform="matrix(0.019378,0,0,-0.019378,-71.445737,119.720538)">
        <path d="M3720,4690C3708,4682 3708,4680 3725,4681C3736,4681 3754,4685 3765,4690C3783,4698 3783,4699 3760,4699C3746,4699 3728,4695 3720,4690Z" style="fill-rule:nonzero;"/>
    </g>
    <g transform="matrix(0.019378,0,0,-0.019378,-71.445737,119.720538)">
        <path d="M3751,4669C3733,4663 3720,4657 3722,4654C3730,4647 3790,4662 3790,4671C3790,4676 3789,4680 3788,4679C3786,4679 3770,4674 3751,4669Z" style="fill-rule:nonzero;"/>
    </g>
    <g transform="matrix(0.019378,0,0,-0.019378,-71.445737,119.720538)">
        <path d="M3765,4642C3754,4640 3741,4633 3735,4628C3728,4621 3734,4620 3755,4625C3799,4635 3808,4651 3765,4642Z" style="fill-rule:nonzero;"/>
    </g>
    <g transform="matrix(0.019378,0,0,-0.019378,-71.445737,119.720538)">
        <path d="M5754,4599C5746,4582 5740,4567 5742,4565C5751,4558 5790,4540 5798,4540C5807,4540 5830,4583 5830,4599C5830,4604 5816,4613 5800,4619C5772,4628 5769,4627 5754,4599Z" style="fill-rule:nonzero;"/>
    </g>
    <g transform="matrix(0.019378,0,0,-0.019378,-71.445737,119.720538)">
        <path d="M3765,4613C3754,4610 3741,4603 3735,4598C3728,4591 3733,4589 3750,4594C3764,4597 3781,4600 3788,4600C3794,4600 3800,4605 3800,4610C3800,4620 3797,4621 3765,4613Z" style="fill-rule:nonzero;"/>
    </g>
    <g transform="matrix(0.019378,0,0,-0.019378,-71.445737,119.720538)">
        <path d="M3754,4574C3736,4560 3736,4559 3760,4566C3774,4569 3792,4576 3800,4581C3812,4588 3811,4589 3794,4590C3783,4590 3765,4583 3754,4574Z" style="fill-rule:nonzero;"/>
    </g>
    <g transform="matrix(0.019378,0,0,-0.019378,-71.445737,119.720538)">
        <path d="M3781,4554C3762,4546 3749,4537 3752,4535C3759,4527 3820,4551 3820,4561C3820,4572 3822,4572 3781,4554Z" style="fill-rule:nonzero;"/>
    </g>
    <g transform="matrix(0.019378,0,0,-0.019378,-71.445737,119.720538)">
        <path d="M5715,4518C5699,4485 5699,4484 5743,4459C5764,4447 5763,4446 5783,4486C5799,4517 5799,4517 5765,4533L5731,4549L5715,4518Z" style="fill-rule:nonzero;"/>
    </g>
    <g transform="matrix(0.019378,0,0,-0.019378,-71.445737,119.720538)">
        <path d="M3785,4525C3769,4517 3762,4511 3770,4511C3796,4510 3830,4522 3830,4531C3830,4543 3822,4541 3785,4525Z" style="fill-rule:nonzero;"/>
    </g>
    <g transform="matrix(0.019378,0,0,-0.019378,-71.445737,119.720538)">
        <path d="M3795,4494L3765,4480L3795,4486C3812,4489 3829,4496 3835,4501C3849,4514 3830,4512 3795,4494Z" style="fill-rule:nonzero;"/>
    </g>
    <g transform="matrix(0.019378,0,0,-0.019378,-71.445737,119.720538)">
        <path d="M3804,4465C3780,4447 3797,4446 3830,4465C3846,4474 3849,4479 3839,4480C3831,4480 3815,4473 3804,4465Z" style="fill-rule:nonzero;"/>
    </g>
    <g transform="matrix(0.019378,0,0,-0.019378,-71.445737,119.720538)">
        <path d="M4351,4419C4339,4390 4331,4365 4333,4364C4335,4362 4353,4377 4373,4398C4409,4435 4410,4437 4392,4453C4374,4470 4372,4468 4351,4419Z" style="fill-rule:nonzero;"/>
    </g>
    <g transform="matrix(0.019378,0,0,-0.019378,-71.445737,119.720538)">
        <path d="M5451,4452C5443,4437 5447,4427 5473,4402C5491,4384 5509,4370 5512,4370C5516,4370 5509,4393 5497,4420C5474,4474 5466,4480 5451,4452Z" style="fill-rule:nonzero;"/>
    </g>
    <g transform="matrix(0.019378,0,0,-0.019378,-71.445737,119.720538)">
        <path d="M5668,4440C5652,4411 5652,4410 5678,4389L5705,4368L5727,4397C5740,4412 5750,4427 5750,4430C5750,4435 5696,4470 5688,4470C5687,4470 5677,4457 5668,4440Z" style="fill-rule:nonzero;"/>
    </g>
    <g transform="matrix(0.019378,0,0,-0.019378,-71.445737,119.720538)">
        <path d="M3828,4447C3804,4438 3789,4420 3805,4420C3817,4420 3860,4444 3860,4452C3860,4456 3859,4460 3858,4459C3856,4458 3843,4453 3828,4447Z" style="fill-rule:nonzero;"/>
    </g>
    <g transform="matrix(0.019378,0,0,-0.019378,-71.445737,119.720538)">
        <path d="M3833,4418C3820,4412 3810,4403 3810,4398C3810,4391 3865,4413 3879,4426C3888,4434 3854,4428 3833,4418Z" style="fill-rule:nonzero;"/>
    </g>
    <g transform="matrix(0.019378,0,0,-0.019378,-71.445737,119.720538)">
        <path d="M4379,4384C4347,4350 4346,4348 4370,4355C4384,4359 4408,4369 4423,4377C4446,4389 4449,4394 4439,4406C4423,4426 4418,4424 4379,4384Z" style="fill-rule:nonzero;"/>
    </g>
    <g transform="matrix(0.019378,0,0,-0.019378,-71.445737,119.720538)">
        <path d="M5413,4413C5384,4402 5415,4374 5480,4355C5504,4348 5503,4350 5471,4384C5435,4421 5434,4422 5413,4413Z" style="fill-rule:nonzero;"/>
    </g>
    <g transform="matrix(0.019378,0,0,-0.019378,-71.445737,119.720538)">
        <path d="M3857,4394C3841,4385 3830,4376 3833,4374C3840,4367 3890,4392 3890,4402C3890,4412 3891,4412 3857,4394Z" style="fill-rule:nonzero;"/>
    </g>
    <g transform="matrix(0.019378,0,0,-0.019378,-71.445737,119.720538)">
        <path d="M5619,4373C5607,4358 5607,4357 5623,4363C5633,4367 5648,4370 5656,4370C5665,4370 5668,4375 5665,4380C5656,4395 5634,4392 5619,4373Z" style="fill-rule:nonzero;"/>
    </g>
    <g transform="matrix(0.019378,0,0,-0.019378,-71.445737,119.720538)">
        <path d="M3863,4366C3850,4360 3840,4352 3840,4348C3840,4334 3857,4339 3881,4360C3907,4381 3898,4384 3863,4366Z" style="fill-rule:nonzero;"/>
    </g>
    <g transform="matrix(0.019378,0,0,-0.019378,-71.445737,119.720538)">
        <path d="M4445,4369C4434,4364 4398,4348 4365,4334L4305,4308L4340,4279C4432,4201 4532,4144 4642,4106C4733,4075 4744,4074 4778,4098C4793,4108 4820,4122 4838,4129C4855,4137 4870,4145 4870,4148C4870,4160 4779,4240 4765,4240C4723,4240 4563,4311 4503,4356C4486,4369 4470,4380 4468,4379C4466,4379 4456,4374 4445,4369Z" style="fill-rule:nonzero;"/>
    </g>
    <g transform="matrix(0.019378,0,0,-0.019378,-71.445737,119.720538)">
        <path d="M5340,4353C5284,4314 5200,4274 5126,4251C5087,4239 5045,4218 5031,4205C5017,4191 4997,4174 4986,4167C4969,4154 4973,4150 5034,4117C5071,4096 5107,4080 5115,4080C5143,4080 5300,4141 5361,4176C5396,4196 5445,4228 5469,4248C5494,4269 5521,4290 5529,4296C5545,4309 5539,4312 5420,4360L5375,4378L5340,4353Z" style="fill-rule:nonzero;"/>
    </g>
    <g transform="matrix(0.019378,0,0,-0.019378,-71.445737,119.720538)">
        <path d="M4135,4350C3990,4319 3952,4137 4072,4047C4124,4008 4216,4008 4269,4047C4302,4071 4340,4145 4340,4185C4339,4229 4307,4294 4273,4318C4236,4344 4175,4358 4135,4350ZM4240,4321C4348,4264 4348,4106 4240,4049C4169,4011 4088,4033 4036,4103C4003,4147 4007,4226 4044,4274C4093,4339 4172,4358 4240,4321Z" style="fill-rule:nonzero;"/>
    </g>
    <g transform="matrix(0.019378,0,0,-0.019378,-71.445737,119.720538)">
        <path d="M4127,4315C4081,4299 4063,4285 4044,4249C3998,4159 4065,4047 4165,4047C4274,4047 4342,4156 4291,4250C4259,4310 4190,4337 4127,4315Z" style="fill-rule:nonzero;"/>
    </g>
    <g transform="matrix(0.019378,0,0,-0.019378,-71.445737,119.720538)">
        <path d="M3871,4336C3858,4329 3851,4321 3856,4318C3861,4315 3879,4321 3895,4331C3929,4352 3908,4356 3871,4336Z" style="fill-rule:nonzero;"/>
    </g>
    <g transform="matrix(0.019378,0,0,-0.019378,-71.445737,119.720538)">
        <path d="M5590,4328C5541,4294 5518,4257 5513,4203C5507,4149 5529,4092 5568,4057C5619,4010 5722,4006 5778,4047C5811,4070 5850,4144 5850,4182C5850,4232 5819,4291 5777,4321C5724,4359 5641,4362 5590,4328ZM5768,4313C5853,4249 5854,4121 5769,4057C5735,4032 5660,4024 5620,4040C5576,4058 5533,4112 5525,4159C5516,4213 5550,4285 5600,4318C5629,4338 5645,4341 5688,4338C5720,4335 5752,4325 5768,4313Z" style="fill-rule:nonzero;"/>
    </g>
    <g transform="matrix(0.019378,0,0,-0.019378,-71.445737,119.720538)">
        <path d="M5637,4315C5589,4298 5570,4282 5553,4243C5534,4195 5537,4147 5563,4109C5622,4021 5752,4027 5801,4120C5860,4230 5754,4356 5637,4315Z" style="fill-rule:nonzero;"/>
    </g>
    <g transform="matrix(0.019378,0,0,-0.019378,-71.445737,119.720538)">
        <path d="M3889,4310C3876,4300 3870,4291 3876,4290C3883,4290 3898,4299 3911,4310C3924,4320 3930,4329 3924,4330C3917,4330 3902,4321 3889,4310Z" style="fill-rule:nonzero;"/>
    </g>
    <g transform="matrix(0.019378,0,0,-0.019378,-71.445737,119.720538)">
        <path d="M3918,4294C3902,4286 3890,4275 3890,4269C3890,4263 3904,4268 3920,4280C3937,4292 3950,4303 3950,4306C3950,4312 3949,4311 3918,4294Z" style="fill-rule:nonzero;"/>
    </g>
    <g transform="matrix(0.019378,0,0,-0.019378,-71.445737,119.720538)">
        <path d="M3920,4260C3906,4249 3900,4240 3906,4240C3913,4240 3928,4249 3941,4260C3972,4285 3953,4286 3920,4260Z" style="fill-rule:nonzero;"/>
    </g>
    <g transform="matrix(0.019378,0,0,-0.019378,-71.445737,119.720538)">
        <path d="M3941,4239C3928,4228 3920,4217 3922,4214C3925,4211 3941,4220 3956,4234C3990,4264 3976,4269 3941,4239Z" style="fill-rule:nonzero;"/>
    </g>
    <g transform="matrix(0.019378,0,0,-0.019378,-71.445737,119.720538)">
        <path d="M4348,4218C4352,4189 4354,4188 4366,4205C4376,4219 4377,4227 4369,4237C4350,4259 4343,4252 4348,4218Z" style="fill-rule:nonzero;"/>
    </g>
    <g transform="matrix(0.019378,0,0,-0.019378,-71.445737,119.720538)">
        <path d="M5440,4208C5375,4160 5248,4098 5168,4075L5111,4059L5128,4030C5137,4013 5152,4000 5161,4000C5204,4000 5415,4094 5468,4137C5486,4151 5493,4168 5496,4203C5498,4229 5498,4250 5497,4249C5496,4249 5470,4230 5440,4208Z" style="fill-rule:nonzero;"/>
    </g>
    <g transform="matrix(0.019378,0,0,-0.019378,-71.445737,119.720538)">
        <path d="M3955,4210C3945,4199 3941,4190 3947,4190C3952,4190 3965,4199 3975,4210C3985,4221 3989,4230 3983,4230C3978,4230 3965,4221 3955,4210Z" style="fill-rule:nonzero;"/>
    </g>
    <g transform="matrix(0.019378,0,0,-0.019378,-71.445737,119.720538)">
        <path d="M4373,4184C4357,4158 4357,4157 4379,4139C4411,4113 4425,4115 4439,4147C4450,4171 4449,4176 4428,4192C4398,4215 4394,4215 4373,4184Z" style="fill-rule:nonzero;"/>
    </g>
    <g transform="matrix(0.019378,0,0,-0.019378,-71.445737,119.720538)">
        <path d="M3967,4183C3963,4180 3960,4172 3960,4166C3960,4160 3965,4161 3972,4168C3978,4174 3981,4182 3979,4185C3976,4188 3970,4187 3967,4183Z" style="fill-rule:nonzero;"/>
    </g>
    <g transform="matrix(0.019378,0,0,-0.019378,-71.445737,119.720538)">
        <path d="M4447,4131C4429,4100 4425,4106 4492,4072C4496,4070 4506,4083 4515,4100C4524,4118 4530,4133 4528,4133C4526,4134 4515,4141 4503,4148C4471,4165 4466,4164 4447,4131Z" style="fill-rule:nonzero;"/>
    </g>
    <g transform="matrix(0.019378,0,0,-0.019378,-71.445737,119.720538)">
        <path d="M4340,4115C4340,4106 4320,4079 4295,4055L4251,4010L4295,3980C4420,3894 4725,3781 4694,3832C4689,3839 4686,3875 4686,3913L4685,3981L4612,4006C4535,4032 4433,4080 4388,4111C4356,4134 4340,4135 4340,4115Z" style="fill-rule:nonzero;"/>
    </g>
    <g transform="matrix(0.019378,0,0,-0.019378,-71.445737,119.720538)">
        <path d="M5411,4084C5350,4049 5249,4006 5173,3984C5164,3982 5160,3959 5160,3916C5160,3881 5157,3845 5154,3836C5145,3812 5179,3816 5281,3850C5380,3883 5470,3926 5547,3977L5599,4011L5564,4042C5545,4059 5522,4086 5514,4101C5506,4117 5496,4130 5492,4129C5488,4128 5452,4108 5411,4084Z" style="fill-rule:nonzero;"/>
    </g>
    <g transform="matrix(0.019378,0,0,-0.019378,-71.445737,119.720538)">
        <path d="M4532,4095C4525,4081 4520,4067 4520,4065C4520,4059 4581,4028 4585,4032C4592,4041 4610,4080 4610,4088C4610,4097 4567,4120 4551,4120C4547,4120 4538,4109 4532,4095Z" style="fill-rule:nonzero;"/>
    </g>
    <g transform="matrix(0.019378,0,0,-0.019378,-71.445737,119.720538)">
        <path d="M4620,4065C4610,4040 4607,4020 4613,4020C4614,4020 4630,4016 4647,4011C4678,4002 4680,4003 4689,4033C4699,4070 4695,4075 4657,4084C4634,4089 4628,4087 4620,4065Z" style="fill-rule:nonzero;"/>
    </g>
    <g transform="matrix(0.019378,0,0,-0.019378,-71.445737,119.720538)">
        <path d="M4711,4052C4704,4039 4700,4024 4703,4017C4705,4010 4712,4015 4719,4028C4726,4041 4730,4056 4727,4063C4725,4070 4718,4065 4711,4052Z" style="fill-rule:nonzero;"/>
    </g>
    <g transform="matrix(0.019378,0,0,-0.019378,-71.445737,119.720538)">
        <path d="M4888,4063C4895,4060 4904,4061 4907,4064C4911,4067 4905,4070 4894,4069C4883,4069 4880,4066 4888,4063Z" style="fill-rule:nonzero;"/>
    </g>
    <g transform="matrix(0.019378,0,0,-0.019378,-71.445737,119.720538)">
        <path d="M4809,4031C4796,4020 4790,4011 4795,4011C4809,4011 4845,4039 4838,4045C4835,4048 4822,4042 4809,4031Z" style="fill-rule:nonzero;"/>
    </g>
    <g transform="matrix(0.019378,0,0,-0.019378,-71.445737,119.720538)">
        <path d="M5036,4016C5057,3997 5077,3984 5080,3987C5086,3993 5019,4050 5006,4050C5001,4050 5014,4035 5036,4016Z" style="fill-rule:nonzero;"/>
    </g>
    <g transform="matrix(0.019378,0,0,-0.019378,-71.445737,119.720538)">
        <path d="M4855,4026C4814,4008 4773,3958 4759,3910C4727,3804 4835,3685 4946,3703C5094,3727 5143,3915 5025,4005C4982,4039 4903,4048 4855,4026ZM5008,4003C5076,3952 5097,3873 5061,3803C5034,3749 4986,3720 4924,3720C4762,3720 4712,3914 4850,4008C4878,4027 4894,4031 4933,4027C4960,4025 4993,4014 5008,4003Z" style="fill-rule:nonzero;"/>
    </g>
    <g transform="matrix(0.019378,0,0,-0.019378,-71.445737,119.720538)">
        <path d="M4853,3990C4790,3952 4769,3892 4795,3825C4836,3717 4958,3700 5034,3790C5084,3850 5061,3958 4991,3995C4950,4016 4892,4014 4853,3990Z" style="fill-rule:nonzero;"/>
    </g>
    <g transform="matrix(0.019378,0,0,-0.019378,-71.445737,119.720538)">
        <path d="M4147,3977C4245,3898 4354,3835 4475,3787C4573,3748 4751,3707 4796,3712L4825,3715L4785,3750C4747,3783 4746,3784 4764,3757C4773,3741 4779,3725 4775,3722C4769,3716 4761,3724 4725,3773C4718,3783 4676,3801 4623,3815C4519,3842 4382,3903 4294,3960C4241,3995 4226,4000 4176,4000L4118,4000L4147,3977Z" style="fill-rule:nonzero;"/>
    </g>
    <g transform="matrix(0.019378,0,0,-0.019378,-71.445737,119.720538)">
        <path d="M5645,3980C5655,3969 5665,3962 5668,3965C5675,3971 5650,4000 5637,4000C5632,4000 5635,3991 5645,3980Z" style="fill-rule:nonzero;"/>
    </g>
    <g transform="matrix(0.019378,0,0,-0.019378,-71.445737,119.720538)">
        <path d="M5680,3985C5687,3976 5695,3972 5697,3974C5704,3981 5690,4000 5678,4000C5672,4000 5672,3994 5680,3985Z" style="fill-rule:nonzero;"/>
    </g>
    <g transform="matrix(0.019378,0,0,-0.019378,-71.445737,119.720538)">
        <path d="M5611,3985C5611,3971 5639,3935 5645,3942C5648,3945 5642,3958 5631,3971C5620,3984 5611,3991 5611,3985Z" style="fill-rule:nonzero;"/>
    </g>
    <g transform="matrix(0.019378,0,0,-0.019378,-71.445737,119.720538)">
        <path d="M5595,3950C5604,3934 5615,3920 5621,3920C5627,3920 5622,3934 5610,3950C5598,3967 5587,3980 5584,3980C5582,3980 5586,3967 5595,3950Z" style="fill-rule:nonzero;"/>
    </g>
    <g transform="matrix(0.019378,0,0,-0.019378,-71.445737,119.720538)">
        <path d="M4740,3946C4727,3912 4727,3813 4740,3805C4745,3802 4747,3818 4743,3849C4740,3876 4742,3913 4749,3931C4763,3970 4755,3984 4740,3946Z" style="fill-rule:nonzero;"/>
    </g>
    <g transform="matrix(0.019378,0,0,-0.019378,-71.445737,119.720538)">
        <path d="M5097,3945C5101,3929 5105,3892 5105,3863C5105,3835 5108,3814 5113,3817C5125,3825 5120,3914 5104,3945L5090,3975L5097,3945Z" style="fill-rule:nonzero;"/>
    </g>
    <g transform="matrix(0.019378,0,0,-0.019378,-71.445737,119.720538)">
        <path d="M5561,3955C5560,3950 5569,3934 5580,3920C5591,3906 5600,3900 5600,3906C5600,3913 5591,3928 5580,3941C5570,3954 5561,3961 5561,3955Z" style="fill-rule:nonzero;"/>
    </g>
    <g transform="matrix(0.019378,0,0,-0.019378,-71.445737,119.720538)">
        <path d="M5545,3923C5560,3891 5570,3881 5570,3899C5570,3904 5561,3918 5550,3931L5529,3955L5545,3923Z" style="fill-rule:nonzero;"/>
    </g>
    <g transform="matrix(0.019378,0,0,-0.019378,-71.445737,119.720538)">
        <path d="M5510,3924C5510,3917 5519,3902 5530,3889C5540,3876 5549,3870 5550,3876C5550,3883 5541,3898 5530,3911C5520,3924 5511,3930 5510,3924Z" style="fill-rule:nonzero;"/>
    </g>
    <g transform="matrix(0.019378,0,0,-0.019378,-71.445737,119.720538)">
        <path d="M5495,3889C5504,3872 5514,3860 5516,3863C5523,3870 5498,3920 5488,3920C5483,3920 5487,3906 5495,3889Z" style="fill-rule:nonzero;"/>
    </g>
    <g transform="matrix(0.019378,0,0,-0.019378,-71.445737,119.720538)">
        <path d="M5460,3903C5460,3884 5482,3840 5492,3840C5505,3840 5502,3853 5480,3885C5469,3902 5460,3910 5460,3903Z" style="fill-rule:nonzero;"/>
    </g>
    <g transform="matrix(0.019378,0,0,-0.019378,-71.445737,119.720538)">
        <path d="M5445,3859C5454,3842 5464,3830 5466,3833C5473,3840 5448,3890 5438,3890C5433,3890 5437,3876 5445,3859Z" style="fill-rule:nonzero;"/>
    </g>
    <g transform="matrix(0.019378,0,0,-0.019378,-71.445737,119.720538)">
        <path d="M5411,3870C5411,3862 5417,3844 5425,3830C5433,3816 5439,3811 5439,3820C5439,3828 5433,3846 5425,3860C5417,3874 5411,3879 5411,3870Z" style="fill-rule:nonzero;"/>
    </g>
    <g transform="matrix(0.019378,0,0,-0.019378,-71.445737,119.720538)">
        <path d="M5380,3860C5381,3852 5388,3834 5396,3820L5411,3795L5405,3825C5398,3858 5380,3884 5380,3860Z" style="fill-rule:nonzero;"/>
    </g>
    <g transform="matrix(0.019378,0,0,-0.019378,-71.445737,119.720538)">
        <path d="M5355,3843C5359,3833 5365,3817 5367,3808C5370,3798 5376,3790 5381,3790C5393,3790 5392,3796 5375,3830C5358,3862 5343,3871 5355,3843Z" style="fill-rule:nonzero;"/>
    </g>
    <g transform="matrix(0.019378,0,0,-0.019378,-71.445737,119.720538)">
        <path d="M5331,3843C5330,3825 5350,3776 5356,3782C5359,3785 5354,3803 5346,3821C5338,3840 5331,3850 5331,3843Z" style="fill-rule:nonzero;"/>
    </g>
    <g transform="matrix(0.019378,0,0,-0.019378,-71.445737,119.720538)">
        <path d="M5304,3815C5308,3799 5316,3781 5321,3775C5328,3768 5329,3775 5324,3795C5321,3812 5313,3830 5307,3835C5301,3842 5300,3835 5304,3815Z" style="fill-rule:nonzero;"/>
    </g>
    <g transform="matrix(0.019378,0,0,-0.019378,-71.445737,119.720538)">
        <path d="M5275,3810C5287,3769 5302,3750 5295,3785C5291,3802 5284,3820 5278,3825C5271,3832 5270,3827 5275,3810Z" style="fill-rule:nonzero;"/>
    </g>
    <g transform="matrix(0.019378,0,0,-0.019378,-71.445737,119.720538)">
        <path d="M5250,3789C5261,3753 5270,3740 5270,3761C5270,3786 5258,3820 5250,3820C5245,3820 5245,3806 5250,3789Z" style="fill-rule:nonzero;"/>
    </g>
    <g transform="matrix(0.019378,0,0,-0.019378,-71.445737,119.720538)">
        <path d="M5190,3790C5190,3776 5195,3758 5200,3750C5208,3738 5210,3740 5210,3760C5210,3774 5205,3792 5200,3800C5192,3812 5190,3810 5190,3790Z" style="fill-rule:nonzero;"/>
    </g>
    <g transform="matrix(0.019378,0,0,-0.019378,-71.445737,119.720538)">
        <path d="M5222,3795C5221,3767 5235,3734 5242,3746C5245,3751 5242,3769 5235,3785C5225,3808 5222,3810 5222,3795Z" style="fill-rule:nonzero;"/>
    </g>
    <g transform="matrix(0.019378,0,0,-0.019378,-71.445737,119.720538)">
        <path d="M5163,3780C5167,3766 5170,3749 5170,3743C5170,3736 5174,3730 5179,3730C5185,3730 5185,3742 5180,3761C5169,3799 5154,3816 5163,3780Z" style="fill-rule:nonzero;"/>
    </g>
    <g transform="matrix(0.019378,0,0,-0.019378,-71.445737,119.720538)">
        <path d="M5136,3763C5140,3747 5147,3731 5153,3725C5160,3718 5161,3721 5156,3733C5153,3743 5150,3760 5150,3771C5150,3781 5145,3790 5140,3790C5134,3790 5132,3779 5136,3763Z" style="fill-rule:nonzero;"/>
    </g>
    <g transform="matrix(0.019378,0,0,-0.019378,-71.445737,119.720538)">
        <path d="M5110,3743C5110,3730 5115,3720 5120,3720C5133,3720 5133,3731 5120,3750C5112,3762 5110,3761 5110,3743Z" style="fill-rule:nonzero;"/>
    </g>
    <g transform="matrix(0.019378,0,0,-0.019378,-71.445737,119.720538)">
        <path d="M5050,3726C5050,3717 5055,3710 5060,3710C5066,3710 5070,3714 5070,3719C5070,3725 5066,3732 5060,3735C5055,3738 5050,3734 5050,3726Z" style="fill-rule:nonzero;"/>
    </g>
</svg>
