<?xml version="1.0" encoding="UTF-8" standalone="no"?>
<!DOCTYPE svg PUBLIC "-//W3C//DTD SVG 1.1//EN" "http://www.w3.org/Graphics/SVG/1.1/DTD/svg11.dtd">
<svg width="100%" height="100%" viewBox="0 0 512 512" version="1.1" xmlns="http://www.w3.org/2000/svg" xmlns:xlink="http://www.w3.org/1999/xlink" xml:space="preserve" xmlns:serif="http://www.serif.com/" style="fill-rule:evenodd;clip-rule:evenodd;stroke-linejoin:round;stroke-miterlimit:2;">
    <path d="M512,128L512,384C512,454.645 454.645,512 384,512L128,512C57.355,512 0,454.645 0,384L0,128C0,57.355 57.355,0 128,0L384,0C454.645,0 512,57.355 512,128Z"/>
    <g transform="matrix(0.404814,0,0,0.404814,-11.520811,149.965691)">
        <g transform="matrix(443.763204,0,0,443.763204,1012.753562,383.302888)">
            <path d="M0.213,-0.371C0.212,-0.338 0.211,-0.312 0.211,-0.293C0.211,-0.245 0.213,-0.208 0.218,-0.18C0.224,-0.153 0.232,-0.134 0.243,-0.122C0.255,-0.111 0.271,-0.105 0.292,-0.105C0.303,-0.105 0.315,-0.108 0.33,-0.115C0.345,-0.122 0.358,-0.13 0.37,-0.141C0.377,-0.148 0.385,-0.151 0.392,-0.151C0.4,-0.151 0.407,-0.146 0.412,-0.138C0.417,-0.129 0.419,-0.118 0.419,-0.105C0.419,-0.092 0.417,-0.08 0.412,-0.068C0.407,-0.056 0.399,-0.046 0.389,-0.038C0.354,-0.009 0.315,0.005 0.271,0.005C0.208,0.005 0.161,-0.022 0.132,-0.074C0.103,-0.128 0.088,-0.197 0.088,-0.282C0.088,-0.311 0.089,-0.341 0.091,-0.371L0.052,-0.371C0.032,-0.371 0.018,-0.375 0.011,-0.382C0.004,-0.389 0.001,-0.401 0.001,-0.417C0.001,-0.454 0.016,-0.473 0.046,-0.473L0.103,-0.473C0.114,-0.546 0.132,-0.613 0.155,-0.674C0.178,-0.735 0.207,-0.783 0.24,-0.819C0.273,-0.855 0.308,-0.873 0.346,-0.873C0.374,-0.873 0.396,-0.861 0.412,-0.836C0.428,-0.811 0.436,-0.78 0.436,-0.743C0.436,-0.64 0.393,-0.55 0.306,-0.473L0.418,-0.473C0.429,-0.473 0.436,-0.471 0.441,-0.466C0.446,-0.461 0.448,-0.453 0.448,-0.44C0.448,-0.394 0.41,-0.371 0.335,-0.371L0.213,-0.371ZM0.319,-0.777C0.309,-0.777 0.298,-0.764 0.286,-0.74C0.273,-0.715 0.262,-0.68 0.251,-0.636C0.24,-0.591 0.23,-0.542 0.223,-0.488C0.262,-0.522 0.292,-0.56 0.311,-0.603C0.331,-0.645 0.341,-0.683 0.341,-0.718C0.341,-0.757 0.334,-0.777 0.319,-0.777Z" style="fill:white;fill-rule:nonzero;"/>
        </g>
        <g transform="matrix(443.763204,0,0,443.763204,1012.753562,383.302888)">
        </g>
        <g transform="matrix(443.763204,0,0,443.763204,1196.027765,383.302888)">
        </g>
        <text x="81.738px" y="383.303px" style="font-family:'Pacifico-Regular', 'Pacifico';font-size:443.763px;fill:white;">Qeus</text>
    </g>
</svg>
